HIERARCHY
ROOT Hips
{
 OFFSET 0.000000 0.000000 0.000000
 CHANNELS 6 Xposition Yposition Zposition Yrotation Xrotation Zrotation
 JOINT Chest
 {
  OFFSET 0.000000 9.585900 0.002600
  CHANNELS 3 Yrotation Xrotation Zrotation
  JOINT Chest2
  {
   OFFSET 0.000000 9.601200 -0.005300
   CHANNELS 3 Yrotation Xrotation Zrotation
   JOINT Chest3
   {
    OFFSET 0.000000 9.561800 0.000000
    CHANNELS 3 Yrotation Xrotation Zrotation
    JOINT Chest4
    {
     OFFSET 0.000000 9.552100 0.000000
     CHANNELS 3 Yrotation Xrotation Zrotation
     JOINT Neck
     {
      OFFSET 0.000000 14.453000 0.000000
      CHANNELS 3 Yrotation Xrotation Zrotation
      JOINT Head
      {
       OFFSET 0.000000 8.936500 -0.011300
       CHANNELS 3 Yrotation Xrotation Zrotation
       End Site
       {
        OFFSET 0.000000 17.073600 -0.006000
       }
      }
     }
     JOINT RightCollar
     {
      OFFSET -2.921100 9.558500 0.000000
      CHANNELS 3 Yrotation Xrotation Zrotation
      JOINT RightShoulder
      {
       OFFSET -13.519700 0.000000 0.000000
       CHANNELS 3 Yrotation Xrotation Zrotation
       JOINT RightElbow
       {
        OFFSET 0.000000 -29.696600 0.000000
        CHANNELS 3 Yrotation Xrotation Zrotation
        JOINT RightWrist
        {
         OFFSET 0.000000 -24.004700 0.000000
         CHANNELS 3 Yrotation Xrotation Zrotation
         End Site
         {
          OFFSET 0.000000 -17.728500 0.000000
         }
        }
       }
      }
     }
     JOINT LeftCollar
     {
      OFFSET 2.921100 9.558500 0.000000
      CHANNELS 3 Yrotation Xrotation Zrotation
      JOINT LeftShoulder
      {
       OFFSET 13.519700 0.000000 0.000000
       CHANNELS 3 Yrotation Xrotation Zrotation
       JOINT LeftElbow
       {
        OFFSET 0.000000 -29.696600 0.000000
        CHANNELS 3 Yrotation Xrotation Zrotation
        JOINT LeftWrist
        {
         OFFSET 0.000000 -24.004700 0.000000
         CHANNELS 3 Yrotation Xrotation Zrotation
         End Site
         {
          OFFSET 0.000000 -17.728500 0.000000
         }
        }
       }
      }
     }
    }
   }
  }
 }
 JOINT RightHip
 {
  OFFSET -7.771700 -0.012900 -0.001300
  CHANNELS 3 Yrotation Xrotation Zrotation
  JOINT RightKnee
  {
   OFFSET 0.000000 -40.869800 0.001200
   CHANNELS 3 Yrotation Xrotation Zrotation
   JOINT RightAnkle
   {
    OFFSET 0.000000 -39.717900 0.002100
    CHANNELS 3 Yrotation Xrotation Zrotation
    JOINT RightToe
    {
     OFFSET 0.000000 -4.965400 11.033500
     CHANNELS 3 Yrotation Xrotation Zrotation
     End Site
     {
      OFFSET 0.000000 -1.423100 5.872300
     }
    }
   }
  }
 }
 JOINT LeftHip
 {
  OFFSET 7.771700 -0.012900 -0.001300
  CHANNELS 3 Yrotation Xrotation Zrotation
  JOINT LeftKnee
  {
   OFFSET 0.000000 -40.869800 0.001200
   CHANNELS 3 Yrotation Xrotation Zrotation
   JOINT LeftAnkle
   {
    OFFSET 0.000000 -39.717900 0.002100
    CHANNELS 3 Yrotation Xrotation Zrotation
    JOINT LeftToe
    {
     OFFSET 0.000000 -4.965400 11.033500
     CHANNELS 3 Yrotation Xrotation Zrotation
     End Site
     {
      OFFSET 0.000000 -1.423100 5.872300
     }
    }
   }
  }
 }
}
MOTION
Frames: 11
Frame Time: 0.008333
-65.128306 63.153464 12.353193 164.596663 -50.182429 -1.617450 7.214888 25.921780 4.531823 1.100069 4.465467 0.360933 1.725535 7.097813 0.628854 5.792647 21.185497 2.585896 3.604978 16.007770 -2.591853 7.628566 -5.647891 -6.275311 5.012965 3.365235 3.789576 -11.615090 -16.135117 -9.373236 -86.853201 -38.461445 134.007544 -8.623942 -14.983542 -6.188604 -6.734785 2.502613 5.576957 20.271672 -10.776881 1.505550 112.788623 -47.354111 -136.804970 25.631855 -22.750757 10.695055 -5.460215 -10.488779 8.261046 -27.930104 74.517275 -25.270697 1.810481 -13.133340 -2.733388 -0.357434 0.668627 -0.153718 -4.830705 -17.052715 -1.011711 12.900591 64.056567 6.195424 -2.356768 -10.346431 0.235456 -0.270988 -0.674167 -0.118733
-65.125471 63.147797 12.349926 164.595226 -50.167508 -1.601263 7.265049 25.888346 4.527496 1.097208 4.458542 0.362255 1.774187 7.059867 0.612700 5.799827 21.183386 2.609170 3.531213 16.104447 -2.596067 7.503435 -5.465015 -6.237424 5.017658 3.375677 3.848227 -11.987063 -16.359290 -9.257277 -87.510306 -38.285361 134.259488 -8.871139 -15.775029 -7.086699 -6.722805 2.591531 5.680224 21.031427 -11.181192 1.172752 112.958785 -47.197831 -136.221655 26.064581 -23.369858 11.524916 -5.466624 -10.509585 8.251774 -27.960272 74.531052 -25.310032 1.815114 -13.149918 -2.737658 -0.365020 0.677994 -0.153428 -4.826963 -17.072464 -1.025034 12.907610 64.064974 6.196496 -2.338066 -10.345469 0.242206 -0.267133 -0.669302 -0.121359
-65.125482 63.143840 12.345040 164.608524 -50.165226 -1.582828 7.293216 25.868478 4.510861 1.116762 4.442978 0.359069 1.771557 7.053602 0.613759 5.839379 21.156219 2.611686 3.461479 16.210058 -2.593324 7.365920 -5.264053 -6.189444 5.021171 3.387719 3.908873 -12.348594 -16.576167 -9.127465 -88.181297 -38.127899 134.465883 -9.094490 -16.535282 -8.007704 -6.708736 2.692773 5.779659 21.733538 -11.609775 0.830498 113.062188 -47.077218 -135.552975 26.450618 -23.933064 12.297604 -5.474186 -10.517213 8.226806 -28.002750 74.547821 -25.363194 1.822756 -13.174841 -2.730718 -0.376116 0.688694 -0.159591 -4.827908 -17.080457 -1.052236 12.917488 64.071481 6.203992 -2.352491 -10.333687 0.240860 -0.274441 -0.659233 -0.120133
-65.123805 63.139809 12.341585 164.613425 -50.161376 -1.576095 7.337540 25.840242 4.517089 1.094986 4.450004 0.360636 1.809760 7.021869 0.607921 5.877065 21.131223 2.615119 3.389443 16.326575 -2.591291 7.227544 -5.046641 -6.130750 5.024736 3.401755 3.968207 -12.710695 -16.785816 -8.976763 -88.831319 -37.986830 134.608797 -9.277336 -17.253702 -8.930186 -6.689081 2.805342 5.868646 22.360245 -12.051547 0.496206 113.116658 -46.973183 -134.800575 26.784480 -24.435709 12.992781 -5.478932 -10.523339 8.220062 -28.024772 74.554594 -25.392920 1.830865 -13.188894 -2.731201 -0.386407 0.697902 -0.162005 -4.824862 -17.087658 -1.059132 12.937621 64.076649 6.225329 -2.382895 -10.325233 0.236259 -0.262030 -0.657304 -0.115366
-65.123673 63.135482 12.338773 164.609957 -50.154883 -1.561667 7.389424 25.804775 4.524328 1.070750 4.459818 0.362094 1.867040 6.974877 0.600222 5.901937 21.116624 2.626955 3.313456 16.450867 -2.581581 7.094708 -4.808139 -6.069242 5.020046 3.422458 4.026105 -13.086533 -16.994161 -8.798560 -89.436837 -37.865617 134.685549 -9.432040 -17.913183 -9.833542 -6.673785 2.927915 5.943103 22.952603 -12.492189 0.180347 113.101972 -46.878210 -133.981871 27.078443 -24.869390 13.599589 -5.486250 -10.536102 8.212074 -28.039521 74.566550 -25.421763 1.838284 -13.194976 -2.743130 -0.395608 0.698454 -0.154814 -4.813867 -17.097336 -1.066605 12.947279 64.081944 6.229317 -2.390940 -10.316067 0.243351 -0.273698 -0.658576 -0.116959
-65.124829 63.131119 12.336537 164.615424 -50.147124 -1.554348 7.408826 25.782259 4.521850 1.150825 4.405286 0.357229 1.836480 6.984526 0.608594 5.943155 21.089162 2.635717 3.236253 16.590178 -2.566930 6.966904 -4.553369 -5.999733 4.962204 3.473979 4.086223 -13.447574 -17.219933 -8.594149 -89.981148 -37.769600 134.705798 -9.580433 -18.514656 -10.718113 -6.673750 3.056471 6.000592 23.548018 -12.920634 -0.114533 113.000579 -46.802997 -133.112988 27.337523 -25.244834 14.129726 -5.490824 -10.546417 8.202003 -28.046582 74.572729 -25.433436 1.838375 -13.209256 -2.749973 -0.396161 0.708691 -0.152993 -4.805039 -17.106562 -1.071536 12.941262 64.083321 6.221390 -2.416969 -10.306239 0.249305 -0.256926 -0.653514 -0.114059
-65.126566 63.127519 12.334328 164.627611 -50.145216 -1.555685 7.478577 25.728766 4.545214 1.159621 4.391418 0.358288 1.831673 6.978262 0.612752 5.985525 21.060284 2.648278 3.189416 16.791198 -2.576572 6.815029 -4.331899 -5.893169 4.949412 3.516705 4.141071 -13.898161 -17.423012 -8.361146 -90.456439 -37.698741 134.677377 -9.735559 -19.066256 -11.602120 -6.733243 3.169826 6.045454 24.181123 -13.309214 -0.387242 112.835649 -46.767797 -132.207026 27.565868 -25.589944 14.611858 -5.498371 -10.548760 8.193040 -28.042918 74.577402 -25.432296 1.837546 -13.224242 -2.756364 -0.397285 0.719284 -0.152308 -4.803893 -17.109928 -1.078230 12.951479 64.083710 6.228895 -2.427623 -10.300432 0.251770 -0.244997 -0.641317 -0.110248
-65.128940 63.125534 12.331471 164.641870 -50.155337 -1.560405 7.552578 25.677771 4.573741 1.151012 4.389564 0.360911 1.843124 6.961112 0.615159 6.028376 21.030744 2.662552 3.142451 16.968999 -2.558033 6.684092 -4.058549 -5.802595 4.923547 3.583610 4.191292 -14.373669 -17.633815 -8.094177 -90.837968 -37.638001 134.586246 -9.896003 -19.573548 -12.505600 -6.735998 3.322877 6.073308 24.719917 -13.723133 -0.652968 112.651201 -46.787974 -131.274840 27.769347 -25.912213 15.076901 -5.504314 -10.537978 8.184311 -28.057256 74.581057 -25.448591 1.843602 -13.239284 -2.758766 -0.402602 0.726908 -0.153868 -4.804474 -17.102680 -1.086501 12.968399 64.088407 6.242302 -2.428791 -10.292116 0.256286 -0.244478 -0.638535 -0.108863
-65.129125 63.123511 12.330236 164.650403 -50.165010 -1.582066 7.626891 25.626234 4.620733 1.158438 4.377867 0.362523 1.855263 6.943412 0.617943 6.073619 21.000026 2.678210 3.064552 17.104339 -2.509810 6.606929 -3.717300 -5.732381 4.862897 3.679295 4.240611 -14.850606 -17.859855 -7.795158 -91.086253 -37.562528 134.404994 -10.053169 -20.036004 -13.410686 -6.756328 3.482988 6.086615 25.201089 -14.118766 -0.892369 112.483141 -46.858544 -130.324773 27.934443 -26.203343 15.568094 -5.511243 -10.526308 8.199019 -28.049084 74.585956 -25.450849 1.880666 -13.262891 -2.747080 -0.445564 0.745042 -0.172226 -4.808297 -17.095464 -1.072317 12.966230 64.093075 6.236305 -2.400555 -10.269864 0.271140 -0.277444 -0.648086 -0.120981
-65.133418 63.122372 12.327875 164.678051 -50.181765 -1.598541 7.645477 25.612439 4.632960 1.202899 4.334364 0.362385 1.867770 6.925185 0.621108 6.120629 20.968177 2.695313 2.985816 17.247209 -2.458860 6.555538 -3.361226 -5.648810 4.789707 3.796610 4.290938 -15.337790 -18.098038 -7.470477 -91.193815 -37.460223 134.118718 -10.192623 -20.444955 -14.280688 -6.820559 3.630136 6.092061 25.632184 -14.469969 -1.091785 112.339994 -46.959586 -129.349941 28.040230 -26.461415 16.126010 -5.517138 -10.505665 8.190559 -28.038773 74.585351 -25.437466 1.876360 -13.279295 -2.750069 -0.445315 0.755185 -0.170994 -4.816407 -17.083443 -1.081512 12.965374 64.098694 6.241540 -2.417903 -10.258809 0.271113 -0.281365 -0.647841 -0.120432
-65.138747 63.123284 12.324338 164.720625 -50.214413 -1.623717 7.711700 25.559350 4.666710 1.191698 4.337862 0.364712 1.880033 6.907504 0.624317 6.166866 20.936921 2.712430 3.016087 17.480765 -2.427432 6.430330 -3.076558 -5.506669 4.711600 3.932536 4.342579 -15.814931 -18.349220 -7.129313 -91.181039 -37.335113 133.726357 -10.300546 -20.802194 -15.104838 -6.905595 3.769873 6.103649 25.994139 -14.780173 -1.258485 112.213755 -47.079985 -128.331736 28.096830 -26.694051 16.741611 -5.526358 -10.467233 8.180584 -28.040239 74.580494 -25.436322 1.864981 -13.289560 -2.744857 -0.439335 0.758617 -0.172119 -4.839088 -17.050682 -1.092845 12.943803 64.099098 6.218506 -2.422034 -10.256476 0.273987 -0.282923 -0.639342 -0.120058
